<?xml version="1.0" encoding="UTF-8"?>
<svg version="1.1" xmlns="http://www.w3.org/2000/svg" width="973" height="256">
<path d="M0 0 C0.64758774 -0.0065712 1.29517548 -0.0131424 1.96238708 -0.01991272 C4.11473719 -0.03968019 6.26701674 -0.05132764 8.41943359 -0.0612793 C9.15887585 -0.06535482 9.8983181 -0.06943035 10.66016769 -0.07362938 C14.5883837 -0.09452362 18.51656462 -0.10880005 22.44482422 -0.11816406 C26.46112097 -0.12912135 30.47684706 -0.1633842 34.49294472 -0.20333576 C37.61268978 -0.22979949 40.73230642 -0.23788276 43.85215378 -0.24144554 C45.32940822 -0.24625037 46.8066594 -0.25768446 48.28380203 -0.27648354 C65.1993573 -0.47804515 80.34566141 2.55887844 93.47802734 13.8449707 C94.69287109 15.17700195 94.69287109 15.17700195 94.69287109 17.17700195 C95.35287109 17.17700195 96.01287109 17.17700195 96.69287109 17.17700195 C107.39216677 30.62523506 111.08758484 46.36823114 109.69287109 63.17700195 C107.12954234 76.87250127 99.89270079 88.96442421 88.38037109 96.86450195 C81.17054836 101.7311323 75.52561502 103.96136083 66.94287109 105.2434082 C65.18716797 105.5074646 65.18716797 105.5074646 63.39599609 105.77685547 C62.05794922 105.97492798 62.05794922 105.97492798 60.69287109 106.17700195 C60.67828857 107.09924561 60.66370605 108.02148926 60.64868164 108.97167969 C60.58718635 112.43301713 60.51295632 115.89361649 60.43041992 119.35449219 C60.39741314 120.84494952 60.36930783 122.33552458 60.34643555 123.82617188 C60.03723682 143.450423 60.03723682 143.450423 54.50537109 149.61450195 C47.30974462 153.61207222 39.75840458 153.71056801 31.69287109 153.17700195 C31.03287109 152.84700195 30.37287109 152.51700195 29.69287109 152.17700195 C29.69287109 129.40700195 29.69287109 106.63700195 29.69287109 83.17700195 C33.75290859 82.50032904 37.14665573 82.04382275 41.17724609 81.96606445 C42.70478516 81.92352539 42.70478516 81.92352539 44.26318359 81.88012695 C46.36718095 81.82843169 48.47137185 81.78404807 50.57568359 81.74731445 C59.90534007 81.46530972 68.50447251 80.06867085 75.93505859 74.05200195 C81.74827035 67.85124274 84.0377256 59.71111311 83.91162109 51.35668945 C83.10147196 43.28413204 79.3476875 36.46487717 73.44287109 30.98950195 C58.91087497 19.17839021 31.76310722 23.59561962 16.69287109 23.17700195 C16.69287109 65.74700195 16.69287109 108.31700195 16.69287109 152.17700195 C13.04907121 153.9989019 8.76704625 153.404606 4.75537109 153.42700195 C3.835625 153.44762695 2.91587891 153.46825195 1.96826172 153.48950195 C1.08460938 153.4946582 0.20095703 153.49981445 -0.70947266 153.50512695 C-1.51892334 153.51447266 -2.32837402 153.52381836 -3.16235352 153.53344727 C-5.96708247 153.0673227 -6.63416618 152.47878913 -8.30712891 150.17700195 C-8.73751831 147.01663208 -8.73751831 147.01663208 -8.81445312 143.05249023 C-8.83211353 142.32859478 -8.84977394 141.60469933 -8.86796951 140.85886765 C-8.92242347 138.44673369 -8.95501886 136.03484597 -8.98681641 133.62231445 C-9.01933801 131.9128359 -9.05270988 130.20337333 -9.08688354 128.493927 C-9.43225817 109.90613009 -9.45794479 91.31454604 -9.43408203 72.72418213 C-9.43146205 69.13964309 -9.43635664 65.55512832 -9.4409523 61.9705925 C-9.4628363 41.68245047 -9.25445292 21.44613061 -8.30712891 1.17700195 C-5.49730985 -0.22790757 -3.14313373 0.02637649 0 0 Z " fill="#000000" transform="translate(138.30712890625,51.822998046875)"/>
<path d="M0 0 C2.49897512 -0.93329961 4.78256879 -1.86280631 7.04296875 -3.2890625 C14.97697581 -8.2315587 23.94707945 -8.29390416 33 -7 C39.56681607 -5.0256063 44.2321396 -0.63361764 48 5 C52.24517367 13.05119144 52.15712539 21.41673459 52.16796875 30.30078125 C52.17296135 31.73806831 52.17296135 31.73806831 52.17805481 33.20439148 C52.18308907 35.21543908 52.18546423 37.22649493 52.18530273 39.23754883 C52.1875058 42.32061233 52.20574336 45.403327 52.22460938 48.48632812 C52.22754068 50.44531128 52.22952723 52.40429613 52.23046875 54.36328125 C52.23765427 55.28514725 52.24483978 56.20701324 52.25224304 57.15681458 C52.24916641 58.01167953 52.24608978 58.86654449 52.24291992 59.74731445 C52.24434494 60.49817825 52.24576996 61.24904205 52.24723816 62.0226593 C52 64 52 64 50 67 C47.08285199 67.27570606 44.4113174 67.3722561 41.5 67.3125 C40.32244141 67.31733398 40.32244141 67.31733398 39.12109375 67.32226562 C33.26703869 67.26703869 33.26703869 67.26703869 31 65 C30.74171448 63.0914917 30.74171448 63.0914917 30.72875977 60.73730469 C30.71347984 59.41517975 30.71347984 59.41517975 30.69789124 58.06634521 C30.69575119 57.11117004 30.69361115 56.15599487 30.69140625 55.171875 C30.66623756 53.15494514 30.64083966 51.13801812 30.61523438 49.12109375 C30.58652913 45.93701978 30.5625177 42.75299555 30.54370117 39.56884766 C30.52200019 36.49875474 30.48254571 33.42926007 30.44140625 30.359375 C30.44123253 28.93875763 30.44123253 28.93875763 30.4410553 27.48944092 C30.36282578 22.24614381 29.93090596 18.5367141 27 14 C24.24369057 11.65203271 22.7501472 12.01586367 19.0625 12.25 C15.80645235 12.7835795 12.87455033 13.30908804 10 15 C7.80384901 19.14479388 7.67585816 23.16749929 7.62109375 27.7578125 C7.60409927 28.50151093 7.5871048 29.24520935 7.56959534 30.01144409 C7.51671292 32.38254354 7.476363 34.75363286 7.4375 37.125 C6.90946735 65.09053265 6.90946735 65.09053265 5 67 C3.66956375 67.0983721 2.33406656 67.13078592 1 67.1328125 C0.195625 67.13410156 -0.60875 67.13539063 -1.4375 67.13671875 C-2.283125 67.13285156 -3.12875 67.12898438 -4 67.125 C-4.845625 67.12886719 -5.69125 67.13273437 -6.5625 67.13671875 C-7.366875 67.13542969 -8.17125 67.13414062 -9 67.1328125 C-9.7425 67.13168457 -10.485 67.13055664 -11.25 67.12939453 C-13 67 -13 67 -14 66 C-14.10650668 64.6253503 -14.14617526 63.24542048 -14.15771484 61.86669922 C-14.16797699 60.98843475 -14.17823914 60.11017029 -14.18881226 59.20529175 C-14.19611359 58.24809235 -14.20341492 57.29089294 -14.2109375 56.3046875 C-14.23902237 54.28905461 -14.26768693 52.27342972 -14.296875 50.2578125 C-14.33803777 47.07161825 -14.37491223 43.8855709 -14.40136719 40.69921875 C-14.42907905 37.62989063 -14.47497089 34.56124888 -14.5234375 31.4921875 C-14.52669037 30.54713348 -14.52994324 29.60207947 -14.53329468 28.62838745 C-14.63699724 23.01224755 -15.30793357 18.96508087 -18 14 C-21.6460439 11.58251437 -25.57577221 11.92929537 -29.75 12.625 C-33.72052252 14.30483645 -36.06548732 16.13097464 -38 20 C-38.10764481 21.43919761 -38.15618521 22.88305911 -38.17358398 24.32617188 C-38.18707382 25.22049927 -38.20056366 26.11482666 -38.21446228 27.03625488 C-38.22490067 28.00397827 -38.23533905 28.97170166 -38.24609375 29.96875 C-38.27902131 32.00391073 -38.31223313 34.03906687 -38.34570312 36.07421875 C-38.39321573 39.29375154 -38.43766127 42.51326431 -38.47680664 45.73291016 C-38.51638764 48.8325524 -38.56795545 51.9318148 -38.62109375 55.03125 C-38.6295079 55.99897339 -38.63792206 56.96669678 -38.64659119 57.96374512 C-38.66323318 58.85807251 -38.67987518 59.7523999 -38.69702148 60.67382812 C-38.70732895 61.46277466 -38.71763641 62.25172119 -38.72825623 63.0645752 C-39 65 -39 65 -41 67 C-43.87342061 67.19856972 -46.62861988 67.27828946 -49.5 67.25 C-50.67755859 67.26160156 -50.67755859 67.26160156 -51.87890625 67.2734375 C-57.74669213 67.25330787 -57.74669213 67.25330787 -60 65 C-60.25396729 62.15344238 -60.25396729 62.15344238 -60.25878906 58.47070312 C-60.2622937 57.80062729 -60.26579834 57.13055145 -60.26940918 56.44017029 C-60.27822732 54.22042548 -60.27237724 52.00099817 -60.265625 49.78125 C-60.26697163 48.24190204 -60.26891215 46.7025545 -60.27142334 45.16320801 C-60.27437471 41.93509883 -60.27007661 38.70710024 -60.26074219 35.47900391 C-60.24934757 31.33594206 -60.25590699 27.19313931 -60.26788712 23.05008698 C-60.27510542 19.87085 -60.27281794 16.69167472 -60.26763153 13.51243591 C-60.26629495 11.98457305 -60.26794306 10.45670464 -60.27259064 8.92884827 C-60.27765547 6.79551301 -60.26994669 4.66260055 -60.25878906 2.52929688 C-60.25719788 1.31399292 -60.25560669 0.09868896 -60.25396729 -1.15344238 C-60 -4 -60 -4 -58 -6 C-54.20895559 -7.458094 -49.9982303 -7.45920269 -46 -7 C-43 -5.625 -43 -5.625 -41 -4 C-41 -3.34 -41 -2.68 -41 -2 C-40.28714844 -2.34933594 -39.57429687 -2.69867188 -38.83984375 -3.05859375 C-25.42575794 -9.43163855 -11.69096773 -10.27388073 0 0 Z " fill="#000000" transform="translate(745,105)"/>
<path d="M0 0 C1.56125851 0.00399299 3.12251789 0.01875614 4.68359375 0.04296875 C5.47701172 0.04361328 6.27042969 0.04425781 7.08789062 0.04492188 C12.98083853 0.09021353 12.98083853 0.09021353 14.12109375 1.23046875 C14.27869039 2.73372704 14.37210052 4.24382509 14.4375 5.75390625 C14.47939453 6.69363281 14.52128906 7.63335937 14.56445312 8.6015625 C14.60376953 9.59285156 14.64308594 10.58414063 14.68359375 11.60546875 C14.72677734 12.55808594 14.76996094 13.51070312 14.81445312 14.4921875 C15.09504107 21.07486965 15.17182131 27.6423269 15.12109375 34.23046875 C16.69890625 33.30234375 16.69890625 33.30234375 18.30859375 32.35546875 C26.48244465 27.54732116 35.5877801 26.56641202 44.8203125 28.91796875 C47.07394268 29.86189762 49.05828217 30.92293858 51.12109375 32.23046875 C51.8171875 32.66617188 52.51328125 33.101875 53.23046875 33.55078125 C61.61828968 39.32134979 67.02755111 47.23321456 69.12109375 57.23046875 C70.45033724 69.35339757 69.41945078 80.27855811 62.37109375 90.54296875 C56.1750324 98.1401495 48.62257064 102.12523956 39.12109375 104.23046875 C30.84599444 104.80116525 23.00348479 103.04814248 16.12109375 98.23046875 C15.80269531 98.88144531 15.48429688 99.53242188 15.15625 100.203125 C12.53464671 102.81466456 10.51443694 102.72541285 6.91210938 102.72851562 C6.13544922 102.70853516 5.35878906 102.68855469 4.55859375 102.66796875 C3.38780273 102.67860352 3.38780273 102.67860352 2.19335938 102.68945312 C-0.0703125 102.6640625 -0.0703125 102.6640625 -3.87890625 102.23046875 C-5.90712171 99.18814556 -6.12925018 98.6120974 -6.13287354 95.20066833 C-6.13851318 94.38326172 -6.14415283 93.5658551 -6.14996338 92.72367859 C-6.14591492 91.83058487 -6.14186646 90.93749115 -6.13769531 90.01733398 C-6.14119995 89.07401215 -6.14470459 88.13069031 -6.14831543 87.15878296 C-6.15713016 84.03546833 -6.15128492 80.9123795 -6.14453125 77.7890625 C-6.14587786 75.62337704 -6.14781836 73.45769187 -6.15032959 71.29200745 C-6.15328041 66.7516899 -6.1489841 62.21145099 -6.13964844 57.67114258 C-6.12824718 51.84102599 -6.13481797 46.01109339 -6.14679337 40.18098354 C-6.15400727 35.7089956 -6.15172631 31.23705157 -6.14653778 26.76506233 C-6.14520034 24.6147872 -6.14685229 22.46450813 -6.15149689 20.31423759 C-6.15655514 17.31412002 -6.14886204 14.314304 -6.13769531 11.31420898 C-6.14174377 10.41909103 -6.14579224 9.52397308 -6.14996338 8.60173035 C-6.09291717 0.36201623 -6.09291717 0.36201623 0 0 Z M18.671875 52.47265625 C14.76354857 56.90274918 13.84003086 61.48763686 14.18359375 67.29296875 C15.03349199 73.24225644 17.14543512 77.14191534 21.30859375 81.54296875 C25.71819729 84.18873087 30.08926534 85.61082541 35.26953125 84.9609375 C41.08377258 83.23448653 44.16788103 79.36567303 47.12109375 74.23046875 C49.76427467 68.77670545 49.29897718 64.06829975 48.12109375 58.23046875 C45.72186919 53.43201962 42.56752966 50.22326215 38.12109375 47.23046875 C30.46613352 44.872741 24.42894684 47.18789407 18.671875 52.47265625 Z " fill="#000000" transform="translate(576.87890625,69.76953125)"/>
<path d="M0 0 C2.74317333 -0.33132997 5.19644679 -0.46401854 7.9375 -0.4375 C8.66646484 -0.45748047 9.39542969 -0.47746094 10.14648438 -0.49804688 C15.47490677 -0.49316289 15.47490677 -0.49316289 17.71435547 1.61010742 C19.42764885 4.79495909 19.34043142 7.12721213 19.29296875 10.734375 C19.28330078 12.02988281 19.27363281 13.32539062 19.26367188 14.66015625 C19.23860783 16.02344354 19.21321302 17.38672479 19.1875 18.75 C19.17244518 20.12889184 19.15875817 21.50779935 19.14648438 22.88671875 C19.11111909 26.25820915 19.06175904 29.62890654 19 33 C19.60328125 32.65066406 20.2065625 32.30132812 20.828125 31.94140625 C21.62734375 31.48636719 22.4265625 31.03132813 23.25 30.5625 C24.43335938 29.88380859 24.43335938 29.88380859 25.640625 29.19140625 C32.160886 25.89889035 40.59952343 25.82966049 47.5703125 27.68359375 C58.46898446 32.25951699 66.66774243 40.02927843 71.23828125 50.88671875 C74.69082719 60.46532055 74.24821306 72.20972999 70.265625 81.53515625 C65.40856292 90.99443455 59.89264336 97.45012723 49.7109375 101.2109375 C39.27218306 104.24930695 30.50576277 102.97920907 21 98 C20.01 98 19.02 98 18 98 C17.5875 98.48726563 17.175 98.97453125 16.75 99.4765625 C14.02518301 101.848613 11.53315026 101.39708219 8 101.375 C6.7625 101.38273437 5.525 101.39046875 4.25 101.3984375 C1 101 1 101 -0.67973614 99.72179413 C-3.03754877 96.64690277 -2.40493678 92.71139823 -2.37231445 88.98632812 C-2.37596512 88.06411972 -2.37961578 87.14191132 -2.38337708 86.1917572 C-2.39149458 83.13806849 -2.37786237 80.08490841 -2.36328125 77.03125 C-2.36276279 74.91280111 -2.36327995 72.79435173 -2.36479187 70.67590332 C-2.36470209 66.23389514 -2.35426132 61.79206824 -2.33618164 57.35009766 C-2.31349438 51.65010211 -2.31294981 45.95037159 -2.31969929 40.25034332 C-2.32303735 35.87524044 -2.31641223 31.5001982 -2.30657005 27.12510681 C-2.30271496 25.02311012 -2.30157111 22.92110668 -2.3031559 20.81910706 C-2.30352587 17.88383072 -2.29092539 14.94889687 -2.2746582 12.01367188 C-2.27713562 11.14085068 -2.27961304 10.26802948 -2.28216553 9.36875916 C-2.22874449 3.34311674 -2.22874449 3.34311674 0 0 Z M24.23828125 49.51953125 C20.09713457 53.96148762 18.04169016 58.25979739 17.97265625 64.453125 C18.37445341 71.33518912 20.33248293 75.33248293 25.25 80.25 C29.490326 82.94838927 33.23548781 84.32330736 38.3046875 83.73046875 C43.91713961 82.26594 46.67757978 79.67288299 49.90625 74.9375 C52.74392471 69.91076194 52.55162171 64.60815407 52 59 C50.40085871 53.75064491 47.81341121 49.78108203 43 47 C35.97074416 44.29333252 30.07996276 44.48091904 24.23828125 49.51953125 Z " fill="#000000" transform="translate(808,71)"/>
<path d="M0 0 C1.26008377 -0.0049926 1.26008377 -0.0049926 2.54562378 -0.01008606 C4.32598321 -0.01514993 6.10635213 -0.01749455 7.88671875 -0.01733398 C10.5861013 -0.01950623 13.28506553 -0.03762793 15.984375 -0.05664062 C17.71874861 -0.05957766 19.45312415 -0.06156038 21.1875 -0.0625 C21.98471466 -0.06968552 22.78192932 -0.07687103 23.603302 -0.08427429 C33.8691806 -0.04327948 43.85950854 2.26239981 51.76171875 9.14453125 C59.37005166 17.13398659 62.19329478 25.15092732 62.09936523 36.12524414 C61.64306332 45.25451856 57.77847944 52.35226215 51.2421875 58.66796875 C41.88454915 66.25822852 31.75657846 67.33839463 20.1171875 67.23046875 C19.19035156 67.22595703 18.26351563 67.22144531 17.30859375 67.21679688 C15.03639041 67.20508449 12.76432362 67.18868247 10.4921875 67.16796875 C10.50004272 68.50758667 10.50004272 68.50758667 10.50805664 69.87426758 C10.52510536 73.18970383 10.53764097 76.50509345 10.54711914 79.82055664 C10.55214592 81.25513443 10.55896829 82.68970711 10.56762695 84.12426758 C10.57976502 86.18702457 10.58543236 88.24971379 10.58984375 90.3125 C10.59769897 92.17418823 10.59769897 92.17418823 10.60571289 94.07348633 C10.4921875 97.16796875 10.4921875 97.16796875 9.4921875 100.16796875 C6.17970563 100.19685021 2.86725583 100.21472674 -0.4453125 100.23046875 C-1.39083984 100.23884766 -2.33636719 100.24722656 -3.31054688 100.25585938 C-4.65922852 100.26069336 -4.65922852 100.26069336 -6.03515625 100.265625 C-6.86781006 100.27086182 -7.70046387 100.27609863 -8.55834961 100.28149414 C-10.5078125 100.16796875 -10.5078125 100.16796875 -11.5078125 99.16796875 C-11.60312231 96.12394453 -11.63332889 93.10265167 -11.62133789 90.05834961 C-11.62148392 89.10235367 -11.62162994 88.14635773 -11.6217804 87.16139221 C-11.62108085 83.9851763 -11.61328653 80.80901823 -11.60546875 77.6328125 C-11.60360472 75.43705782 -11.60218075 73.24130273 -11.60118103 71.04554749 C-11.59735469 65.25376242 -11.58752341 59.46200225 -11.57647705 53.67022705 C-11.56626543 47.76518084 -11.56168395 41.86013062 -11.55664062 35.95507812 C-11.54590125 24.35936403 -11.52882343 12.76366846 -11.5078125 1.16796875 C-7.65812336 -0.11526096 -4.01231373 0.0055167 0 0 Z M10.4921875 21.16796875 C10.4921875 29.74796875 10.4921875 38.32796875 10.4921875 47.16796875 C13.3178125 47.22984375 16.1434375 47.29171875 19.0546875 47.35546875 C19.93068604 47.38278076 20.80668457 47.41009277 21.70922852 47.43823242 C27.07391668 47.49457528 30.78620098 46.81171404 35.4921875 44.16796875 C38.55066325 40.71968727 39.47634397 37.08689347 39.5546875 32.54296875 C38.08676197 27.88014649 35.88912195 24.63856073 31.60839844 22.01220703 C29.2233915 21.06073564 27.5054769 20.93805943 24.9453125 20.97265625 C23.80304199 20.98014893 23.80304199 20.98014893 22.63769531 20.98779297 C21.68217773 21.00600098 20.72666016 21.02420898 19.7421875 21.04296875 C16.6896875 21.08421875 13.6371875 21.12546875 10.4921875 21.16796875 Z " fill="#000000" transform="translate(296.5078125,71.83203125)"/>
<path d="M0 0 C7.0927507 7.23216595 7.48619834 18.11384796 7.42578125 27.68359375 C7.42865143 28.70412842 7.43152161 29.72466309 7.43447876 30.77612305 C7.4365035 32.91048749 7.43108619 35.04487118 7.41845703 37.17919922 C7.4022466 40.4532145 7.41842827 43.72602024 7.4375 47 C7.43551989 49.08203397 7.43168104 51.16406719 7.42578125 53.24609375 C7.43185394 54.22416992 7.43792664 55.20224609 7.44418335 56.20996094 C7.42999863 57.56782715 7.42999863 57.56782715 7.41552734 58.953125 C7.41314056 59.74823486 7.41075378 60.54334473 7.40829468 61.36254883 C6.92840851 63.97145656 6.13411416 64.85930548 4.02734375 66.43359375 C1.03125 66.796875 1.03125 66.796875 -2.41015625 66.74609375 C-3.54324219 66.74222656 -4.67632812 66.73835938 -5.84375 66.734375 C-8.85068365 66.44531896 -10.3719477 65.82401585 -12.97265625 64.43359375 C-17.38667307 64.75461316 -20.91414591 65.76856387 -24.97265625 67.43359375 C-34.25014669 69.54211431 -42.49813274 68.80494327 -50.953125 64.40234375 C-56.72283213 60.76090812 -58.87342364 55.73129158 -60.97265625 49.43359375 C-61.75823572 42.90426931 -60.80336796 37.82159776 -56.97265625 32.43359375 C-52.25990185 26.90829549 -46.89976394 25.04643792 -39.97265625 23.43359375 C-39.35237549 23.26770752 -38.73209473 23.10182129 -38.09301758 22.9309082 C-35.95644809 22.42979225 -33.89746436 22.15229517 -31.71484375 21.93359375 C-30.52955078 21.80984375 -30.52955078 21.80984375 -29.3203125 21.68359375 C-27.66414137 21.51614517 -26.00789027 21.34948573 -24.3515625 21.18359375 C-23.56394531 21.10109375 -22.77632813 21.01859375 -21.96484375 20.93359375 C-21.2466748 20.86140625 -20.52850586 20.78921875 -19.78857422 20.71484375 C-17.8782979 20.51351764 -17.8782979 20.51351764 -15.97265625 19.43359375 C-15.66196884 16.01603224 -15.61014585 14.03252398 -17.41015625 11.05859375 C-21.20876883 8.64971748 -24.59289612 8.7876579 -28.97265625 9.43359375 C-32.21927062 10.86814429 -34.06452055 12.52409305 -36.6015625 15.0234375 C-40.31662404 18.12357666 -43.54639413 18.05696665 -48.22265625 17.80859375 C-48.94195312 17.79441406 -49.66125 17.78023437 -50.40234375 17.765625 C-55.60063244 17.61960565 -55.60063244 17.61960565 -57.97265625 16.43359375 C-57.35534398 8.87151844 -54.75074008 3.85327529 -49.22265625 -1.31640625 C-35.47953724 -12.6462234 -13.46690281 -10.69352085 0 0 Z M-39.47265625 41.24609375 C-40.20592619 44.45414975 -40.09876065 46.32024628 -38.97265625 49.43359375 C-34.34610526 52.4215746 -30.53276864 52.94427653 -25.1171875 52.05859375 C-21.40024707 50.97533242 -19.5046292 49.32727712 -16.97265625 46.43359375 C-14.78883771 41.6110522 -14.78883771 41.6110522 -13.97265625 36.43359375 C-16.66078115 36.35195216 -19.34637925 36.29279707 -22.03515625 36.24609375 C-22.78732422 36.22095703 -23.53949219 36.19582031 -24.31445312 36.16992188 C-29.94128361 36.09684615 -35.63967982 36.61458057 -39.47265625 41.24609375 Z " fill="#000000" transform="translate(470.97265625,105.56640625)"/>
<path d="M0 0 C2.57385205 -0.2773676 4.87031753 -0.37287588 7.4375 -0.3125 C8.4594043 -0.31733398 8.4594043 -0.31733398 9.50195312 -0.32226562 C13.19980816 -0.28242585 14.85171631 -0.0988558 18 2 C18.38394667 4.77262255 18.60342248 7.34323528 18.6875 10.125 C18.72166016 10.87910156 18.75582031 11.63320312 18.79101562 12.41015625 C18.87354278 14.27291201 18.93844711 16.13643326 19 18 C23.29 18.33 27.58 18.66 32 19 C33.91612073 23.79030182 34.18498444 25.38304378 33.6875 30.25 C33.58824219 31.30703125 33.48898437 32.3640625 33.38671875 33.453125 C33 36 33 36 32 37 C29.81360547 37.07258946 27.62499611 37.08373783 25.4375 37.0625 C23.64119141 37.04896484 23.64119141 37.04896484 21.80859375 37.03515625 C20.88175781 37.02355469 19.95492187 37.01195312 19 37 C18.97070016 41.31248547 18.95310097 45.62494493 18.9375 49.9375 C18.92493164 51.75604492 18.92493164 51.75604492 18.91210938 53.61132812 C18.89434534 60.16625712 19.11004274 66.50401275 20 73 C23.96 73.33 27.92 73.66 32 74 C34.64812363 79.7635632 33.8019749 84.90932576 33 91 C25.1059523 93.97508404 15.59113789 94.62680781 7.71484375 91.11328125 C2.86148961 87.96247048 -0.27945152 83.46471701 -2 78 C-2.27021832 74.84554122 -2.23280935 71.70695254 -2.1953125 68.54296875 C-2.1924826 67.64000565 -2.18965271 66.73704254 -2.18673706 65.80671692 C-2.17557607 62.93350766 -2.15047897 60.06061445 -2.125 57.1875 C-2.11496493 55.23503056 -2.10584 53.28255621 -2.09765625 51.33007812 C-2.07565008 46.55326434 -2.04114831 41.77668569 -2 37 C-3.01320313 37.05220703 -3.01320313 37.05220703 -4.046875 37.10546875 C-4.93890625 37.13253906 -5.8309375 37.15960938 -6.75 37.1875 C-8.07257813 37.23970703 -8.07257813 37.23970703 -9.421875 37.29296875 C-12.4913841 36.9441609 -13.79710407 36.1321506 -16 34 C-16.49609375 31.44140625 -16.49609375 31.44140625 -16.4375 28.5625 C-16.43621094 27.61503906 -16.43492187 26.66757813 -16.43359375 25.69140625 C-15.92596731 22.54046374 -15.33848604 21.17359279 -13 19 C-10.30078125 18.390625 -10.30078125 18.390625 -7.3125 18.25 C-6.31863281 18.19328125 -5.32476562 18.1365625 -4.30078125 18.078125 C-3.54152344 18.05234375 -2.78226562 18.0265625 -2 18 C-2.02320313 16.95199219 -2.04640625 15.90398437 -2.0703125 14.82421875 C-2.08907303 13.44531963 -2.10727293 12.0664128 -2.125 10.6875 C-2.14175781 9.99720703 -2.15851563 9.30691406 -2.17578125 8.59570312 C-2.21217794 4.82864604 -2.14378864 3.21568296 0 0 Z " fill="#000000" transform="translate(498,80)"/>
<path d="M0 0 C1.84295748 1.84295748 1.42991613 4.76407406 1.625 7.25 C1.72039062 8.38953125 1.81578125 9.5290625 1.9140625 10.703125 C1.99195073 13.69120088 1.72643757 16.11593444 1 19 C0.11957031 19.19335938 -0.76085937 19.38671875 -1.66796875 19.5859375 C-3.41013672 19.97652344 -3.41013672 19.97652344 -5.1875 20.375 C-6.33605469 20.63023438 -7.48460937 20.88546875 -8.66796875 21.1484375 C-9.76753906 21.42945312 -10.86710937 21.71046875 -12 22 C-12.92425781 22.21914062 -13.84851563 22.43828125 -14.80078125 22.6640625 C-17.55703333 24.33837549 -17.82594496 25.86209852 -18.60978699 28.89593506 C-19.32905465 32.77429336 -19.31945023 36.64762503 -19.34375 40.58203125 C-19.3583728 41.47742111 -19.37299561 42.37281097 -19.38806152 43.29533386 C-19.4500463 47.10226667 -19.49012952 50.90935114 -19.53173828 54.71655273 C-19.56536238 57.50522171 -19.61046595 60.29353979 -19.65625 63.08203125 C-19.6615271 63.94657425 -19.6668042 64.81111725 -19.67224121 65.70185852 C-19.77430493 71.77430493 -19.77430493 71.77430493 -22 74 C-24.89132177 74.17179052 -27.67442065 74.2322947 -30.5625 74.1875 C-31.35591797 74.18685547 -32.14933594 74.18621094 -32.96679688 74.18554688 C-38.85974478 74.14025522 -38.85974478 74.14025522 -40 73 C-40.09432985 70.79132169 -40.11742431 68.57958479 -40.11352539 66.36889648 C-40.11367142 65.67624695 -40.11381744 64.98359741 -40.1139679 64.2699585 C-40.11326874 61.97030554 -40.10547628 59.67073263 -40.09765625 57.37109375 C-40.09579208 55.78068588 -40.09436817 54.19027743 -40.09336853 52.59986877 C-40.08954329 48.4060407 -40.07971295 44.21224705 -40.06866455 40.01843262 C-40.05845057 35.74211086 -40.05387094 31.46578356 -40.04882812 27.18945312 C-40.03809069 18.79295292 -40.02101419 10.39648074 -40 2 C-38.41646418 1.66019921 -36.83155195 1.32680897 -35.24609375 0.99609375 C-34.3636499 0.80974365 -33.48120605 0.62339355 -32.57202148 0.43139648 C-29.06884033 -0.15618027 -26.39889244 -0.04047728 -23 1 C-21.30859375 3.55859375 -21.30859375 3.55859375 -20 6 C-19.34773438 5.57847656 -18.69546875 5.15695313 -18.0234375 4.72265625 C-6.5935908 -2.44207067 -6.5935908 -2.44207067 0 0 Z " fill="#000000" transform="translate(406,98)"/>
<path d="M0 0 C2.4375 1.125 2.4375 1.125 3.4375 3.125 C3.54460902 5.23290868 3.58638634 7.34424133 3.59863281 9.45483398 C3.60359772 10.10379639 3.60856262 10.75275879 3.61367798 11.42138672 C3.62830054 13.57129978 3.63510119 15.7211391 3.640625 17.87109375 C3.64637574 19.36320498 3.65213348 20.85531619 3.65789795 22.34742737 C3.66840776 25.47714584 3.67425076 28.60683862 3.67773438 31.73657227 C3.68322354 35.74955796 3.7072603 39.7622051 3.73570633 43.7750845 C3.75431582 46.85741677 3.75953736 49.93966715 3.76107025 53.02205086 C3.76410042 54.50165727 3.77214125 55.98126212 3.78525543 57.46081352 C3.80228383 59.52939629 3.80044438 61.59714734 3.79394531 63.66577148 C3.79759094 64.84332504 3.80123657 66.0208786 3.80499268 67.2341156 C3.4375 70.125 3.4375 70.125 2.14788818 72.00819397 C-0.81570791 73.94328802 -4.20951008 73.47163632 -7.625 73.375 C-8.72424805 73.36726563 -8.72424805 73.36726563 -9.84570312 73.359375 C-15.25263127 73.27993437 -15.25263127 73.27993437 -17.5625 72.125 C-17.5625 48.695 -17.5625 25.265 -17.5625 1.125 C-11.69792377 -1.80728812 -6.31709584 -1.5515674 0 0 Z " fill="#000000" transform="translate(557.5625,98.875)"/>
<path d="M0 0 C0.804375 -0.00128906 1.60875 -0.00257812 2.4375 -0.00390625 C3.283125 -0.00003906 4.12875 0.00382812 5 0.0078125 C6.2684375 0.00201172 6.2684375 0.00201172 7.5625 -0.00390625 C8.366875 -0.00261719 9.17125 -0.00132813 10 0 C10.7425 0.00112793 11.485 0.00225586 12.25 0.00341797 C14 0.1328125 14 0.1328125 15 1.1328125 C15.09432985 3.34149081 15.11742431 5.55322771 15.11352539 7.76391602 C15.11367142 8.45656555 15.11381744 9.14921509 15.1139679 9.862854 C15.11326874 12.16250696 15.10547628 14.46207987 15.09765625 16.76171875 C15.09579208 18.35212662 15.09436817 19.94253507 15.09336853 21.53294373 C15.08954329 25.7267718 15.07971295 29.92056545 15.06866455 34.11437988 C15.05845057 38.39070164 15.05387094 42.66702894 15.04882812 46.94335938 C15.03809069 55.33985958 15.02101419 63.73633176 15 72.1328125 C11.84150315 73.71206092 8.4634872 73.27597764 5 73.2578125 C3.89398437 73.26361328 3.89398437 73.26361328 2.765625 73.26953125 C-2.7466804 73.2594723 -2.7466804 73.2594723 -5 72.1328125 C-5.02312524 62.89283698 -5.04091601 53.65287136 -5.05181217 44.41287327 C-5.05704061 40.12281335 -5.06413753 35.83277317 -5.07543945 31.54272461 C-5.08626975 27.4060185 -5.09227714 23.26933142 -5.09487724 19.13261223 C-5.09673124 17.55088946 -5.10035136 15.96916779 -5.10573006 14.38745308 C-5.1129424 12.17958412 -5.11399086 9.97179477 -5.11352539 7.76391602 C-5.115746 6.50482925 -5.11796661 5.24574249 -5.12025452 3.94850159 C-4.93729893 -0.33529625 -3.89052121 0.00591008 0 0 Z " fill="#000000" transform="translate(660,98.8671875)"/>
<path d="M0 0 C3.07039282 1.82917019 4.56060145 3.26101152 6.375 6.3125 C7.22305381 9.95913137 6.95418711 12.37408898 6 16 C4.13814292 18.90996544 2.14263414 21.42868293 -1 23 C-5.23660902 23.43281664 -8.91394711 23.44858706 -12.875 21.8125 C-16.49897052 18.72146632 -17.83348831 16.30830616 -18.4375 11.5625 C-17.79818893 6.35668129 -15.68870206 3.49570754 -11.8125 0.0625 C-7.68887417 -1.4953142 -4.22309967 -1.12667087 0 0 Z " fill="#000000" transform="translate(556,70)"/>
<path d="M0 0 C3.26469584 2.38812846 5.51582597 5.06330389 6.5078125 9.03125 C6.7998012 14.09238749 5.16410904 17.20306915 2 21 C-2.05834563 23.70556375 -5.24132846 23.51943246 -10 23 C-13.87816033 21.56676684 -14.79564744 20.3542111 -16.875 16.75 C-18.14199578 12.52668074 -18.17553347 10.23192049 -17 6 C-15.18157504 3.07753131 -13.67974996 1.41540276 -10.75 -0.375 C-6.93430637 -1.2422031 -3.67005773 -1.33066421 0 0 Z " fill="#000000" transform="translate(671,70)"/>
</svg>
